<svg xmlns="http://www.w3.org/2000/svg" width="91" height="91" viewBox="0 0 91 91">
    <g fill="none" fill-rule="evenodd">
        <g>
            <g>
                <g>
                    <g>
                        <path fill="#FFF" fill-opacity=".01" d="M0 0H90V90H0z" transform="translate(-264 -1533) translate(162.375 1505.13) translate(102 28.78)"/>
                        <path fill="#FF4340" d="M25.3 7.604l2.156-.323c11.631-1.745 23.457-1.745 35.088 0l2.155.323c9.146 1.372 16.325 8.551 17.697 17.697l.323 2.155c1.745 11.631 1.745 23.457 0 35.088l-.323 2.155c-1.372 9.146-8.551 16.325-17.697 17.697l-2.155.323c-11.631 1.745-23.457 1.745-35.088 0l-2.155-.323c-9.146-1.372-16.325-8.551-17.697-17.697l-.323-2.155c-1.745-11.631-1.745-23.457 0-35.088l.323-2.155c1.372-9.146 8.551-16.325 17.697-17.697z" transform="translate(-264 -1533) translate(162.375 1505.13) translate(102 28.78)"/>
                        <g>
                            <path fill="#FFF" d="M27.617.238c2.522 0 4.588 1.952 4.77 4.427l.014.357-.001 4.666h4.846c4.289 0 7.765 2.922 7.765 6.525v21.75c0 3.604-3.476 6.525-7.765 6.525h-.078v1.81c0 1.354-1.096 2.45-2.45 2.45-1.262 0-2.302-.955-2.435-2.182l-.014-.267-.001-1.448H13.834l.001 1.448c0 1.263-.955 2.302-2.183 2.436l-.267.014c-1.263 0-2.302-.956-2.435-2.183l-.015-.267v-1.81h-.16c-4.288 0-7.764-2.922-7.764-6.526v-21.75c0-3.603 3.476-6.525 7.765-6.525H13.5V5.022c0-2.522 1.952-4.588 4.427-4.77l.357-.014h9.333zm-.116 4.9h-9.1l-.001 4.55h9.1v-4.55z" transform="translate(-264 -1533) translate(162.375 1505.13) translate(102 28.78) translate(22.112 18.573)"/>
                            <path fill="#FF4340" d="M11.751 8.8H36.551V9.8H11.751zM6.428 44.536H39.059V45.536H6.428z" transform="translate(-264 -1533) translate(162.375 1505.13) translate(102 28.78) translate(22.112 18.573)"/>
                            <path fill="#FF4340" fill-rule="nonzero" d="M46.4 23.424L46.4 25.824 0 25.824 0 23.424z" transform="translate(-264 -1533) translate(162.375 1505.13) translate(102 28.78) translate(22.112 18.573)"/>
                            <path fill="#FF4340" fill-rule="nonzero" d="M15.95 21.122v6.608c0 1.16-.94 2.1-2.1 2.1-1.16 0-2.1-.94-2.1-2.1v-6.608c0-1.16.94-2.1 2.1-2.1 1.16 0 2.1.94 2.1 2.1zM34.35 21.122v6.608c0 1.16-.94 2.1-2.1 2.1-1.16 0-2.1-.94-2.1-2.1v-6.608c0-1.16.94-2.1 2.1-2.1 1.16 0 2.1.94 2.1 2.1z" transform="translate(-264 -1533) translate(162.375 1505.13) translate(102 28.78) translate(22.112 18.573)"/>
                            <path fill="#FFF" d="M8.935 26.822H36.55V27.822H8.935z" transform="translate(-264 -1533) translate(162.375 1505.13) translate(102 28.78) translate(22.112 18.573)"/>
                        </g>
                    </g>
                </g>
            </g>
        </g>
    </g>
</svg>
