<svg xmlns="http://www.w3.org/2000/svg" width="91" height="91" viewBox="0 0 91 91">
    <g fill="none" fill-rule="evenodd">
        <g>
            <g>
                <g>
                    <g>
                        <path fill="#FFF" fill-opacity=".01" d="M0 0H90V90H0z" transform="translate(-1031 -1938) translate(929.625 1910.155) translate(102 28.78)"/>
                        <path fill="#FB0" d="M25.152 7.455l2.155-.323c11.63-1.745 23.457-1.745 35.088 0l2.155.323c9.146 1.372 16.325 8.551 17.697 17.697l.323 2.155c1.745 11.63 1.745 23.457 0 35.088l-.323 2.155c-1.372 9.146-8.551 16.325-17.697 17.697l-2.155.323c-11.631 1.745-23.457 1.745-35.088 0l-2.155-.323C16.006 80.875 8.827 73.696 7.455 64.55l-.323-2.155c-1.745-11.631-1.745-23.457 0-35.088l.323-2.155c1.372-9.146 8.551-16.325 17.697-17.697z" transform="translate(-1031 -1938) translate(929.625 1910.155) translate(102 28.78)"/>
                        <g>
                            <path d="M0 0L51.84 0 51.84 51.84 0 51.84z" transform="translate(-1031 -1938) translate(929.625 1910.155) translate(102 28.78) translate(19.08 19.08)"/>
                            <path fill="#FFF" d="M17.003 35.03l.1.07 7.062 5.666c.193.155.317.378.348.62l.008.123v6.756c0 .208-.068.41-.194.577-.294.386-.826.486-1.236.248l-.1-.067-12.696-9.655c-.118-.09-.213-.206-.279-.339-.214-.436-.064-.956.332-1.216l.104-.06 5.635-2.765c.295-.145.64-.126.916.042zm18.91-.042l5.634 2.766c.472.231.667.803.435 1.275-.065.133-.16.25-.278.339l-12.697 9.655c-.419.32-1.016.238-1.335-.181-.126-.166-.195-.369-.195-.577v-6.756c0-.289.132-.562.357-.743l7.062-5.666c.288-.231.684-.275 1.016-.112zm-9.485-21.501l.11.084 8.507 7.391c.263.229.403.565.384.909l-.014.129-1.76 10.173c-.039.223-.144.428-.3.59l-.1.09-6.705 5.42c-.382.308-.915.33-1.318.067l-.107-.08-6.48-5.419c-.196-.163-.33-.389-.38-.639l-2.183-10.825 8.985-7.806c.387-.336.946-.364 1.361-.084zM6.75 19.115l.107.029 5.854 1.968c.29.098.512.327.604.614l.028.11 1.865 9.71c.073.384-.095.77-.417.979l-.1.057-5.597 2.738c-.088.044-.183.073-.28.087-.484.071-.936-.234-1.06-.695l-.022-.109-2.121-14.417c-.022-.149-.009-.3.04-.443.155-.463.632-.727 1.1-.628zm39.156.628c.048.143.062.294.04.443l-2.122 14.417c-.076.52-.56.881-1.081.804-.098-.014-.192-.043-.28-.087l-5.597-2.738c-.386-.19-.598-.613-.517-1.036l1.865-9.71c.065-.338.306-.614.632-.724l5.853-1.968c.5-.168 1.04.1 1.207.6zm-20.373-.946c-.402-.44-1.085-.47-1.525-.069l-4.254 3.886-.128.14c-.191.249-.267.572-.2.885l1.236 5.73.058.186c.196.474.707.754 1.226.642l.186-.058c.473-.195.753-.707.642-1.225l-1.107-5.126 3.797-3.465.132-.144c.31-.407.295-.99-.063-1.382zM24.346 2.104c.133.169.205.377.205.592v7.315c0 .28-.123.546-.337.727l-9.293 7.878c-.26.22-.619.285-.94.17l-6.81-2.458c-.495-.179-.752-.725-.573-1.22.06-.167.166-.314.305-.424L23.007 1.948c.413-.326 1.012-.256 1.339.156zm4.443-.224l.099.068 16.055 12.697c.147.116.256.273.314.451.152.465-.072.962-.506 1.162l-.103.04-7.29 2.386c-.281.092-.587.048-.828-.115l-.1-.077-8.765-7.755c-.175-.155-.286-.368-.315-.598l-.007-.116V2.696c0-.215.073-.423.206-.592.301-.38.835-.47 1.24-.224z" transform="translate(-1031 -1938) translate(929.625 1910.155) translate(102 28.78) translate(19.08 19.08)"/>
                        </g>
                    </g>
                </g>
            </g>
        </g>
    </g>
</svg>
