<svg xmlns="http://www.w3.org/2000/svg" width="91" height="91" viewBox="0 0 91 91">
    <g fill="none" fill-rule="evenodd">
        <g>
            <g>
                <g>
                    <g>
                        <path fill="#FFF" fill-opacity=".01" d="M0 0H90V90H0z" transform="translate(-264 -1938) translate(162.375 1910.155) translate(102 28.78)"/>
                        <g fill="#008EFA">
                            <path d="M20.652 2.955l2.155-.323c11.63-1.745 23.457-1.745 35.088 0l2.155.323c9.146 1.372 16.325 8.551 17.697 17.697l.323 2.155c1.745 11.63 1.745 23.457 0 35.088l-.323 2.155c-1.372 9.146-8.551 16.325-17.697 17.697l-2.155.323c-11.631 1.745-23.457 1.745-35.088 0l-2.155-.323C11.506 76.375 4.327 69.196 2.955 60.05l-.323-2.155c-1.745-11.631-1.745-23.457 0-35.088l.323-2.155c1.372-9.146 8.551-16.325 17.697-17.697z" transform="translate(-264 -1938) translate(162.375 1910.155) translate(102 28.78) translate(4.5 4.5)"/>
                        </g>
                        <g fill="#FFF">
                            <path d="M40.845 2.354c2.59 0 4.708 2.119 4.708 4.709v42.374c0 2.59-2.119 4.709-4.708 4.709H17.303c-2.59 0-4.708-2.119-4.708-4.709v-3.52c0-1.294 1.059-2.353 2.354-2.353 1.295 0 2.354 1.06 2.354 2.354v1.165h23.542V9.417H17.303v1.257c0 1.295-1.06 2.354-2.354 2.354-1.295 0-2.354-1.06-2.354-2.354V7.063c0-2.59 2.118-4.709 4.708-4.709zm-8.688 13.419l.372.014.362.04c2.505.37 4.386 2.509 4.386 5.066v14.714l-.014.372-.04.362c-.37 2.505-2.509 4.386-5.066 4.386h-20.6l-.371-.014-.362-.04c-2.505-.37-4.386-2.509-4.386-5.066V20.893l.013-.372.04-.362c.37-2.505 2.51-4.386 5.067-4.386h20.599zM11.61 20.126l-.218.016-.134.037c-.26.106-.465.388-.465.714v2.234l3.708.003.28.007.366.035c2.542.327 4.474 2.486 4.474 5.078l-.013.366c-.187 2.657-2.402 4.754-5.107 4.754l-3.708-.002v2.239l.014.166.037.133c.105.26.388.466.714.466h20.599l.166-.014.133-.037c.26-.106.466-.388.466-.714V20.893l-.014-.166-.037-.133c-.105-.26-.388-.466-.714-.466l-20.547-.002zm-.817 7.357v1.53l3.708.002.13-.009.143-.034c.277-.101.492-.388.492-.722l-.016-.154c-.071-.349-.38-.611-.75-.611l-3.707-.002z" transform="translate(-264 -1938) translate(162.375 1910.155) translate(102 28.78) translate(16.75 16.75)"/>
                        </g>
                    </g>
                </g>
            </g>
        </g>
    </g>
</svg>
