<svg xmlns="http://www.w3.org/2000/svg" width="91" height="91" viewBox="0 0 91 91">
    <g fill="none" fill-rule="evenodd">
        <g>
            <g>
                <g>
                    <g>
                        <path fill="#FFF" fill-opacity=".01" d="M0 0.668H90V90.668H0z" transform="translate(-1031 -1134) translate(929.625 1106.05) translate(102 27.78) translate(0 .332)"/>
                        <path fill="#00D170" d="M25.592 7.596l1.645-.26c11.769-1.858 23.757-1.858 35.526 0l1.645.26c9.61 1.518 17.146 9.054 18.663 18.664l.26 1.644c1.858 11.77 1.858 23.758 0 35.527l-.26 1.644c-1.517 9.61-9.054 17.147-18.663 18.664l-1.645.26c-11.769 1.858-23.757 1.858-35.526 0l-1.645-.26c-9.61-1.517-17.146-9.054-18.663-18.664l-.26-1.644c-1.858-11.77-1.858-23.757 0-35.527l.26-1.644c1.517-9.61 9.054-17.146 18.663-18.664z" transform="translate(-1031 -1134) translate(929.625 1106.05) translate(102 27.78) translate(0 .332)"/>
                        <g>
                            <path d="M0 0L59.834 0 59.834 59.834 0 59.834z" transform="translate(-1031 -1134) translate(929.625 1106.05) translate(102 27.78) translate(0 .332) translate(15.083 15.75)"/>
                            <path fill="#FFF" d="M49.793 7.51c.676-.165 1.332.348 1.332 1.046 0 .574-.06 3.424-.181 8.549-.012.507-.427.913-.935.913h-1.633c4.736 5.52 6.536 9.572 5.399 12.158-.15.34-.485.56-.856.56h-3.27c-5.092 0-11.457 5.086-11.457 11.445 0 .08-5.892.146-17.677.199-.233 0-.463-.042-.679-.125.072.446.109.906.109 1.374 0 4.819-3.907 8.726-8.726 8.726-4.82 0-8.726-3.907-8.726-8.726 0-.44.033-.872.095-1.294l-.095.047h-.542c-.056 0-.112-.002-.169-.007C.754 42.28-.004 41.372.09 40.343c.644-7.091 4.77-11.398 12.376-12.92-1.49-1.489-3.277-2.46-5.363-2.91-.43-.094-.737-.474-.737-.914v-2.183c0-.484.37-.889.852-.932 8.924-.796 15.854-1.195 20.79-1.195 2.546 0 3.82.966 3.82 2.544 0 1.272-.646 2.909-1.384 3.93-.539.746-.55 2.57-.034 5.473.08.446.467.77.92.77h4.272c.965 0 1.892-.372 2.588-1.04 1.937-1.856 2.983-4.337 3.138-7.442.032-.636.04.131-.262-11.177-.498-.183-1.84-.373-4.026-.57-.15-.014-.296-.064-.423-.146-.434-.28-.558-.86-.277-1.293l.108-.162c.506-.722.993-.997 1.461-.825.555.204 5.194.64 5.244.663.815.054 1.405-.898 1.758.075l.682 2.002c.272-1.771 1.373-3.269 2.896-4.082.408-.218.845-.387 1.305-.499zm1.13 27.04c4.921 0 8.91 3.986 8.91 8.902 0 4.917-3.989 8.903-8.91 8.903-4.922 0-8.912-3.986-8.912-8.903 0-4.916 3.99-8.902 8.911-8.902zm-39.704 5.34c-2.065 0-3.74 1.673-3.74 3.739 0 2.065 1.675 3.74 3.74 3.74 2.065 0 3.74-1.675 3.74-3.74 0-2.066-1.675-3.74-3.74-3.74zm39.703-.354c-2.169 0-3.925 1.755-3.925 3.916 0 2.162 1.756 3.916 3.925 3.916 2.17 0 3.926-1.754 3.926-3.916 0-2.161-1.757-3.916-3.926-3.916z" transform="translate(-1031 -1134) translate(929.625 1106.05) translate(102 27.78) translate(0 .332) translate(15.083 15.75)"/>
                        </g>
                    </g>
                </g>
            </g>
        </g>
    </g>
</svg>
