<svg xmlns="http://www.w3.org/2000/svg" width="90" height="91" viewBox="0 0 90 91">
    <g fill="none" fill-rule="evenodd">
        <g>
            <g>
                <g>
                    <g>
                        <path fill="#FFF" fill-opacity=".01" d="M0 0H90V90H0z" transform="translate(-141 -928) translate(39 900) translate(102 28.78)"/>
                        <path fill="#00D170" d="M24.85 9.481l3.655-.609c11.142-1.857 22.514-1.857 33.656 0l3.655.609c7.88 1.313 14.056 7.489 15.37 15.37l.608 3.654c1.857 11.142 1.857 22.514 0 33.656l-.609 3.655c-1.313 7.88-7.489 14.056-15.37 15.37l-3.654.608c-11.142 1.857-22.514 1.857-33.656 0l-3.654-.609c-7.881-1.313-14.057-7.489-15.37-15.37l-.609-3.654c-1.857-11.142-1.857-22.514 0-33.656l.609-3.654c1.313-7.881 7.489-14.057 15.37-15.37z" transform="translate(-141 -928) translate(39 900) translate(102 28.78)"/>
                        <g>
                            <path d="M0 0L59.834 0 59.834 59.834 0 59.834z" transform="translate(-141 -928) translate(39 900) translate(102 28.78) translate(14.958 14.958)"/>
                            <path fill="#FFF" d="M41.727 7.48c3.251 0 6.12 2.098 7.115 5.172l.076.252 2.368 8.286 3.562.001c1.377 0 2.493 1.116 2.493 2.493 0 1.377-1.116 2.493-2.493 2.493h-.453c1.764 1.45 2.852 3.6 2.94 5.928l.006.305v14.958h-1.247v3.117c0 .983-.76 1.79-1.724 1.864l-.146.006h-4.986c-.983 0-1.79-.76-1.864-1.724l-.006-.146v-3.117H12.465v3.117c0 .983-.759 1.79-1.723 1.864l-.146.006H5.609c-.983 0-1.79-.76-1.864-1.724l-.005-.146v-3.117H2.493V32.41l.005-.286c.083-2.335 1.172-4.494 2.94-5.947h-.452c-1.377 0-2.493-1.116-2.493-2.493 0-1.322 1.029-2.403 2.33-2.488l.163-.005h3.561l2.369-8.287c.893-3.127 3.699-5.308 6.928-5.42l.263-.005h23.62zm12.186 24.93h-6.928c-2.027 0-3.85 1.234-4.603 3.116l-.733 1.835c-.045.11-.067.228-.067.347 0 .516.418.935.935.935h11.396c.516 0 .935-.419.935-.935v-4.363c0-.516-.419-.935-.935-.935zm-41.064 0H5.92l-.109.006c-.465.054-.826.45-.826.929v4.363l.006.109c.054.465.45.826.93.826h11.395l.11-.007c.464-.054.825-.449.825-.928 0-.12-.023-.237-.067-.347l-.733-1.835-.088-.206c-.8-1.766-2.563-2.91-4.515-2.91zm23.684 0H23.3c-.29 0-.576.055-.844.163-1.165.466-1.732 1.788-1.266 2.953.753 1.882 2.576 3.117 4.603 3.117h8.246c2.027 0 3.85-1.235 4.603-3.117.107-.268.162-.555.162-.844 0-1.255-1.017-2.272-2.272-2.272zm5.263-20.008h-23.98c-1.278 0-2.721.968-3.207 2.15l-2.144 10.379h34.903l-2.365-10.379c-.486-1.182-1.929-2.15-3.207-2.15z" transform="translate(-141 -928) translate(39 900) translate(102 28.78) translate(14.958 14.958)"/>
                        </g>
                        <path d="M23.67 1.497l.847-.115C37.439-.38 50.533-.458 63.47 1.152l2.61.345C77.613 3.07 86.68 12.138 88.254 23.67l.115.847c1.842 13.51 1.842 27.207 0 40.717l-.115.847C86.68 77.613 77.613 86.68 66.08 88.254l-.847.115c-13.51 1.842-27.207 1.842-40.717 0l-.847-.115C12.138 86.68 3.07 77.613 1.497 66.08l-.115-.847C-.38 52.311-.458 39.217 1.152 26.28l.345-2.61C3.07 12.138 12.138 3.07 23.67 1.497z" transform="translate(-141 -928) translate(39 900) translate(102 28.78)"/>
                    </g>
                </g>
            </g>
        </g>
    </g>
</svg>
