<svg xmlns="http://www.w3.org/2000/svg" width="91" height="91" viewBox="0 0 91 91">
    <g fill="none" fill-rule="evenodd">
        <g>
            <g>
                <g>
                    <g>
                        <path fill="#FFF" fill-opacity=".01" d="M0 0H90V90H0z" transform="translate(-1031 -1533) translate(929.625 1505.13) translate(102 28.78)"/>
                        <path fill="#3939E6" d="M25.3 7.604l2.156-.323c11.631-1.745 23.457-1.745 35.088 0l2.155.323c9.146 1.372 16.325 8.551 17.697 17.697l.323 2.155c1.745 11.631 1.745 23.457 0 35.088l-.323 2.155c-1.372 9.146-8.551 16.325-17.697 17.697l-2.155.323c-11.631 1.745-23.457 1.745-35.088 0l-2.155-.323c-9.146-1.372-16.325-8.551-17.697-17.697l-.323-2.155c-1.745-11.631-1.745-23.457 0-35.088l.323-2.155c1.372-9.146 8.551-16.325 17.697-17.697z" transform="translate(-1031 -1533) translate(929.625 1505.13) translate(102 28.78)"/>
                        <g>
                            <path d="M0 0L56.14 0 56.14 56.14 0 56.14z" transform="translate(-1031 -1533) translate(929.625 1505.13) translate(102 28.78) translate(16.5 16.5)"/>
                            <path fill="#FFF" d="M51.462 23.368c1.824 0 2.329.526 2.34 2.34v2.339c0 1.824-.516 2.339-2.34 2.339h-2.34l-3.599 17.746c-.4 2.035-1.488 3.307-3.418 3.307h-28.07c-1.93 0-3.776-1.272-4.177-3.307l-2.84-17.746h-2.34c-1.824 0-2.339-.515-2.339-2.34v-2.338c0-1.825.515-2.34 2.34-2.34zm-32.767 9.63c-1.002 0-1.866.802-1.866 1.867v10.44c0 1.002.801 1.867 1.866 1.867 1.002 0 1.867-.801 1.867-1.867v-10.44c0-1.001-.802-1.866-1.867-1.866zm5.99 0c-1.002 0-1.866.802-1.866 1.867v10.44c0 1.002.801 1.867 1.866 1.867 1.002 0 1.867-.801 1.867-1.867v-10.44c0-1.001-.865-1.866-1.867-1.866zm6.022 0c-1.002 0-1.867.866-1.867 1.867v10.44c0 1.066.865 1.867 1.867 1.867 1.065 0 1.866-.865 1.866-1.867v-10.44c0-1.065-.865-1.866-1.866-1.866zm5.99 0c-1.066 0-1.867.866-1.867 1.867v10.44c0 1.066.865 1.867 1.866 1.867 1.065 0 1.867-.865 1.867-1.867v-10.44c0-1.065-.865-1.866-1.867-1.866zM22.141 7.984c.538-.928 1.73-1.234 2.657-.696.928.538 1.234 1.73.696 2.658l-10.204 11.84h-4.503zm9.125-.696c.928-.548 2.12-.232 2.658.696l11.353 13.792h-4.502L30.57 9.945c-.548-.929-.232-2.12.696-2.658z" transform="translate(-1031 -1533) translate(929.625 1505.13) translate(102 28.78) translate(16.5 16.5)"/>
                        </g>
                    </g>
                </g>
            </g>
        </g>
    </g>
</svg>
