<svg xmlns="http://www.w3.org/2000/svg" width="90" height="91" viewBox="0 0 90 91">
    <g fill="none" fill-rule="evenodd">
        <g>
            <g>
                <g>
                    <g>
                        <path fill="#FFF" fill-opacity=".01" d="M0 0H90V90H0z" transform="translate(-141 -1283) translate(39 1255) translate(102 28.78)"/>
                        <path fill="#F23DA7" d="M25.3 7.604l2.156-.323c11.631-1.745 23.457-1.745 35.088 0l2.155.323c9.146 1.372 16.325 8.551 17.697 17.697l.323 2.155c1.745 11.631 1.745 23.457 0 35.088l-.323 2.155c-1.372 9.146-8.551 16.325-17.697 17.697l-2.155.323c-11.631 1.745-23.457 1.745-35.088 0l-2.155-.323c-9.146-1.372-16.325-8.551-17.697-17.697l-.323-2.155c-1.745-11.631-1.745-23.457 0-35.088l.323-2.155c1.372-9.146 8.551-16.325 17.697-17.697z" transform="translate(-141 -1283) translate(39 1255) translate(102 28.78)"/>
                        <g>
                            <path d="M0 0L56.14 0 56.14 56.14 0 56.14z" transform="translate(-141 -1283) translate(39 1255) translate(102 28.78) translate(16.5 16.5)"/>
                            <path fill="#FFF" d="M25.731 4.678c1.287 0 2.34 1.053 2.34 2.34v14.035c0 4.641-2.682 7.66-8.045 9.057-.773.202-1.313.9-1.313 1.698v14.976c0 1.286-1.052 2.339-2.339 2.339-1.286 0-2.339-1.053-2.339-2.34V31.809c0-.798-.54-1.496-1.312-1.698-5.363-1.397-8.045-4.416-8.045-9.057V7.018c0-1.287 1.053-2.34 2.34-2.34 1.286 0 2.339 1.053 2.339 2.34v14.035h4.678V7.018c0-1.287 1.053-2.34 2.34-2.34 1.286 0 2.338 1.053 2.338 2.34v14.035h4.679V7.018c0-1.287 1.052-2.34 2.339-2.34zm16.374 0c7.507 0 10.527 9.27 10.527 14.035l-.009 2.34c.006 4.267-2.454 7.999-7.38 11.195-.498.323-.799.877-.799 1.471v13.65c0 .968-.785 1.754-1.754 1.754h-1.17c-.968 0-1.754-.786-1.754-1.755V33.77c0-.62-.327-1.193-.86-1.509-4.885-2.895-7.326-6.631-7.325-11.208l-.002-2.34c0-4.766 3.02-14.035 10.526-14.035z" transform="translate(-141 -1283) translate(39 1255) translate(102 28.78) translate(16.5 16.5)"/>
                        </g>
                    </g>
                </g>
            </g>
        </g>
    </g>
</svg>
