<svg xmlns="http://www.w3.org/2000/svg" width="91" height="91" viewBox="0 0 91 91">
    <g fill="none" fill-rule="evenodd">
        <g>
            <g>
                <g>
                    <g>
                        <path fill="#FFF" fill-opacity=".01" d="M0.351 0.351H90.351V90.351H0.351z" transform="translate(-1031 -2358) translate(929.625 2330.043) translate(101 27.78) translate(.65 .65)"/>
                        <path fill="#58C0F9" d="M25.652 7.955l2.155-.323c11.63-1.745 23.457-1.745 35.088 0l2.155.323c9.146 1.372 16.325 8.551 17.697 17.697l.323 2.155c1.745 11.63 1.745 23.457 0 35.088l-.323 2.155c-1.372 9.146-8.551 16.325-17.697 17.697l-2.155.323c-11.631 1.745-23.457 1.745-35.088 0l-2.155-.323C16.506 81.375 9.327 74.196 7.955 65.05l-.323-2.155c-1.745-11.631-1.745-23.457 0-35.088l.323-2.155c1.372-9.146 8.551-16.325 17.697-17.697z" transform="translate(-1031 -2358) translate(929.625 2330.043) translate(101 27.78) translate(.65 .65)"/>
                        <g fill="#FFF">
                            <path d="M15.002 9.357c1.18 0 2.152.88 2.285 2.015l.016.266v1.7c0 1.26-1.03 2.281-2.301 2.281-.957 0-1.781-.58-2.127-1.41l-.09-.256-.008-.035-1.068.001-.045.013-.032.032-.013.045-.004 6.8-.006.012.01.21c0 5.02 3.427 8.631 8.164 8.631 4.71 0 8.127-3.569 8.165-8.522v-7.132c0-.032-.019-.06-.045-.076l-.046-.013h-1.14l-.003.031c-.238 1.008-1.15 1.758-2.24 1.758-1.18 0-2.152-.88-2.285-2.015l-.015-.266v-1.789c0-1.17.888-2.134 2.032-2.266l.268-.015h3.383c2.47 0 4.5 1.9 4.679 4.305l.013.347v7.021c0 3.492-1.17 6.692-3.313 9.077l-.413.438-.168.162-.083.063c-.01.006-.019.009-.025.008l-.136.224-6.329 9.102.002 4.989c0 3.31 2.516 6.05 5.75 6.438l.392.035.398.012c3.428 0 6.464-2.455 6.52-5.961l-.056-26.108c0-4.309 3.504-7.813 7.813-7.813 4.165 0 7.578 3.274 7.8 7.385l.012.428V31.45l.054.022c1.903.828 3.252 2.592 3.543 4.651l.044.416.014.422c0 3.301-2.684 5.986-5.985 5.986-3.3 0-5.985-2.685-5.985-5.986 0-2.268 1.28-4.298 3.228-5.31l.427-.2V19.508c0-1.533-1.102-2.815-2.554-3.095l-.295-.043-.303-.014c-1.636 0-2.985 1.253-3.138 2.849l-.014.303-.002 15.579h.02v10.526c0 5.848-5.175 10.526-11.143 10.526-5.978 0-10.87-4.69-11.13-10.556l-.012-.491v-4.88l-6.403-9.21-.11-.18-.015-.05-.127-.144-.084-.084c-2.263-2.281-3.566-5.41-3.712-8.863l-.013-.652c.002-.11.002-.11.01-.12l-.008-.128-.002-6.773c0-2.45 1.917-4.462 4.341-4.64l.35-.012h3.293zm33.536 25.965c-.967 0-1.754.787-1.754 1.754s.787 1.754 1.754 1.754 1.754-.787 1.754-1.754-.787-1.754-1.754-1.754zm-31.696-2.383l2.978 4.32 2.962-4.298-1.137.163-.59.07c-.396.038-.795.057-1.196.057-.42 0-.838-.021-1.252-.062l-.617-.078-1.148-.172z" transform="translate(-1031 -2358) translate(929.625 2330.043) translate(101 27.78) translate(.65 .65) translate(17.132 17.132)"/>
                        </g>
                    </g>
                </g>
            </g>
        </g>
    </g>
</svg>
